# xmcd
#
# Track frame offsets: 
#        150
#        17612
#        35752
#        50447
#        75105
#        96032
#        119380
#        145342
#        167300
#        189442
#        211392
#        223485
#        243480
#        259597
#        272740
#        301395
#        321922
#        345267
#
# Disc length: 4603 seconds
#
# Revision: 1
# Processed by: cddbd v1.5.2PL0 Copyright (c) Steve Scherf et al.
# Submitted via: ExactAudioCopyFreeDBPlugin 1.0
#
DISCID=f911f912
DTITLE=Marvin Gaye - Marvin Gaye:  The Master, 1961-1984 [box set]
DYEAR=1995
DGENRE=Soul
TTITLE0=What's Going On
TTITLE1=Save the Children
TTITLE2=Mercy Mercy Me (The Ecology)
TTITLE3=Inner City Blues (Make Me Wanna Holler)
TTITLE4=I'm Going Home (alternate mix)
TTITLE5=Piece of Clay
TTITLE6=You're the Man, Parts I and II
TTITLE7=Checking Out (Double Clutch)
TTITLE8=Trouble Man
TTITLE9=Let's Get it On
TTITLE10=Come Get to This
TTITLE11=Just to Keep You Satisfied
TTITLE12=Pledging My Love (duet with Diana Ross)
TTITLE13=My Mistake (Was To Love You) (duet with Diana Ross)
TTITLE14=Distant Lover (live)
TTITLE15=I Want You
TTITLE16=After the Dance
TTITLE17=-Blank--
EXTD=
EXTT0=
EXTT1=
EXTT2=
EXTT3=
EXTT4=
EXTT5=
EXTT6=
EXTT7=
EXTT8=
EXTT9=
EXTT10=
EXTT11=
EXTT12=
EXTT13=
EXTT14=
EXTT15=
EXTT16=
EXTT17=
PLAYORDER=
